<!DOCTYPE svg PUBLIC "-//W3C//DTD SVG 1.1//EN" "http://www.w3.org/Graphics/SVG/1.1/DTD/svg11.dtd">
<!-- Uploaded to: SVG Repo, www.svgrepo.com, Transformed by: SVG Repo Mixer Tools -->
<svg width="800px" height="800px" viewBox="0 0 1024 1024" class="icon" xmlns="http://www.w3.org/2000/svg" fill="#eeedde" transform="rotate(0)" stroke="#eeedde" stroke-width="0.01024">
<g id="SVGRepo_bgCarrier" stroke-width="0"/>
<g id="SVGRepo_iconCarrier">
<path fill="#eeedde" d="M768 832a128 128 0 01-128 128H192A128 128 0 0164 832V384a128 128 0 01128-128v64a64 64 0 00-64 64v448a64 64 0 0064 64h448a64 64 0 0064-64h64z"/>
<path fill="#eeedde" d="M384 128a64 64 0 00-64 64v448a64 64 0 0064 64h448a64 64 0 0064-64V192a64 64 0 00-64-64H384zm0-64h448a128 128 0 01128 128v448a128 128 0 01-128 128H384a128 128 0 01-128-128V192A128 128 0 01384 64z"/>
</g>
</svg>